<?xml version="1.0" encoding="UTF-8" standalone="no"?>
<!-- Created with Inkscape (http://www.inkscape.org/) -->

<svg
   xmlns:dc="http://purl.org/dc/elements/1.1/"
   xmlns:cc="http://creativecommons.org/ns#"
   xmlns:rdf="http://www.w3.org/1999/02/22-rdf-syntax-ns#"
   xmlns:svg="http://www.w3.org/2000/svg"
   xmlns="http://www.w3.org/2000/svg"
   xmlns:sodipodi="http://sodipodi.sourceforge.net/DTD/sodipodi-0.dtd"
   xmlns:inkscape="http://www.inkscape.org/namespaces/inkscape"
   width="128"
   height="128"
   id="svg2"
   version="1.1"
   inkscape:version="0.48.2 r9819"
   inkscape:export-filename="F:\Projects\CubeArena\CubeArena-android\assets\textures\push-tile.png"
   inkscape:export-xdpi="90"
   inkscape:export-ydpi="90"
   sodipodi:docname="tiles.svg">
  <defs
     id="defs4" />
  <sodipodi:namedview
     id="base"
     pagecolor="#ffffff"
     bordercolor="#666666"
     borderopacity="1.0"
     inkscape:pageopacity="0.0"
     inkscape:pageshadow="2"
     inkscape:zoom="3.3311359"
     inkscape:cx="6.8004585"
     inkscape:cy="74.098446"
     inkscape:document-units="px"
     inkscape:current-layer="g3772"
     showgrid="true"
     inkscape:window-width="1680"
     inkscape:window-height="988"
     inkscape:window-x="-8"
     inkscape:window-y="-8"
     inkscape:window-maximized="1">
    <inkscape:grid
       type="xygrid"
       id="grid3766"
       empspacing="5"
       visible="true"
       enabled="true"
       snapvisiblegridlinesonly="true"
       spacingx="4px"
       spacingy="4px" />
  </sodipodi:namedview>
  <metadata
     id="metadata7">
    <rdf:RDF>
      <cc:Work
         rdf:about="">
        <dc:format>image/svg+xml</dc:format>
        <dc:type
           rdf:resource="http://purl.org/dc/dcmitype/StillImage" />
        <dc:title></dc:title>
      </cc:Work>
    </rdf:RDF>
  </metadata>
  <g
     inkscape:label="Calque 1"
     inkscape:groupmode="layer"
     id="layer1"
     transform="translate(0,-924.36218)">
    <g
       id="g3772"
       transform="matrix(2.0101525,0,0,2.0101525,0.44528861,-1060.9945)">
      <g
         id="g3781"
         transform="matrix(-0.99807218,0,0,0.988294,-48.471697,-23.367545)"
         inkscape:export-filename="F:\Projects\CubeArena\CubeArena-android\assets\textures\rotleft-tile.png"
         inkscape:export-xdpi="90"
         inkscape:export-ydpi="90">
        <path
           inkscape:connector-curvature="0"
           style="fill:#aa0000;fill-opacity:1;fill-rule:evenodd;stroke:none"
           d="m 31.78125,1.96875 c -16.016258,0 -29,12.983742 -29,29 0,16.016258 12.983742,29 29,29 16.016258,0 29,-12.983742 29,-29 0,-16.016258 -12.983742,-29 -29,-29 z m 0,8.0625 c 11.064968,0 20.03125,9.384377 20.03125,20.9375 0,11.553123 -8.966282,20.90625 -20.03125,20.90625 C 20.716282,51.875 11.75,42.521873 11.75,30.96875 c 0,-11.553123 8.966282,-20.9375 20.03125,-20.9375 z"
           transform="translate(0,988.36218)"
           id="path2985" />
        <path
           style="fill:#aa0000;fill-opacity:1;stroke:none"
           d="m -0.1152746,1022.9935 7.4661752,-10 7.4661754,10 z"
           id="path3768"
           inkscape:connector-curvature="0" />
        <path
           inkscape:connector-curvature="0"
           id="path3770"
           d="m 63.684481,1016.6323 -7.214912,10 -7.214913,-10 z"
           style="fill:#aa0000;fill-opacity:1;stroke:none" />
        <path
           inkscape:connector-curvature="0"
           id="path3777"
           d="m 29.068877,987.15991 9.831732,7.34054 -9.831732,7.34045 z"
           style="fill:#aa0000;fill-opacity:1;stroke:none" />
        <path
           style="fill:#aa0000;fill-opacity:1;stroke:none"
           d="m 35.382932,1051.5909 -9.831732,-7.3405 9.831732,-7.3405 z"
           id="path3779"
           inkscape:connector-curvature="0" />
      </g>
      <g
         inkscape:export-ydpi="90"
         inkscape:export-xdpi="90"
         inkscape:export-filename="F:\Projects\CubeArena\CubeArena-android\assets\textures\rotright-tile.png"
         transform="matrix(0.99807218,0,0,0.988294,-112.67214,52.765042)"
         id="g3788">
        <path
           id="path3790"
           transform="translate(0,988.36218)"
           d="m 31.78125,1.96875 c -16.016258,0 -29,12.983742 -29,29 0,16.016258 12.983742,29 29,29 16.016258,0 29,-12.983742 29,-29 0,-16.016258 -12.983742,-29 -29,-29 z m 0,8.0625 c 11.064968,0 20.03125,9.384377 20.03125,20.9375 0,11.553123 -8.966282,20.90625 -20.03125,20.90625 C 20.716282,51.875 11.75,42.521873 11.75,30.96875 c 0,-11.553123 8.966282,-20.9375 20.03125,-20.9375 z"
           style="fill:#aa0000;fill-opacity:1;fill-rule:evenodd;stroke:none"
           inkscape:connector-curvature="0" />
        <path
           inkscape:connector-curvature="0"
           id="path3792"
           d="m -0.1152746,1022.9935 7.4661752,-10 7.4661754,10 z"
           style="fill:#aa0000;fill-opacity:1;stroke:none" />
        <path
           style="fill:#aa0000;fill-opacity:1;stroke:none"
           d="m 63.684481,1016.6323 -7.214912,10 -7.214913,-10 z"
           id="path3794"
           inkscape:connector-curvature="0" />
        <path
           style="fill:#aa0000;fill-opacity:1;stroke:none"
           d="m 29.068877,987.15991 9.831732,7.34054 -9.831732,7.34045 z"
           id="path3796"
           inkscape:connector-curvature="0" />
        <path
           inkscape:connector-curvature="0"
           id="path3798"
           d="m 35.382932,1051.5909 -9.831732,-7.3405 9.831732,-7.3405 z"
           style="fill:#aa0000;fill-opacity:1;stroke:none" />
      </g>
      <rect
         style="fill:#000000;fill-opacity:1;fill-rule:evenodd;stroke:none"
         id="rect3798"
         width="91.535339"
         height="79.595947"
         x="586.79865"
         y="1401.5636"
         rx="1.9464947e-007" />
      <g
         transform="matrix(0.98333334,0,0,0.98333334,0.52694744,16.991711)"
         id="g3847" />
      <g
         id="g3916"
         inkscape:export-filename="F:\Projects\CubeArena\CubeArena-android\assets\textures\push-tile.png"
         inkscape:export-xdpi="90"
         inkscape:export-ydpi="90">
        <path
           id="rect3901"
           transform="matrix(0.49747469,0,0,0.49747469,-0.22151982,987.66471)"
           d="M 4 4 L 4 124 L 124 124 L 124 4 L 4 4 z M 12 12 L 116 12 L 116 116 L 12 116 L 12 12 z "
           style="fill:#aa0000;fill-opacity:1;fill-rule:evenodd;stroke:none" />
        <path
           transform="matrix(0.49747469,0,0,0.49747469,-0.22151982,987.66471)"
           inkscape:connector-curvature="0"
           id="path3906"
           d="M 64,12 C 12,36 12,36 12,36 l 0,8 0,4 52,-24 52,24 0,-12 z"
           style="fill:#aa0000;stroke:none;stroke-width:1px;stroke-linecap:butt;stroke-linejoin:miter;stroke-opacity:1" />
        <path
           style="fill:#aa0000;stroke:none;stroke-width:0.49747469999999999px;stroke-linecap:butt;stroke-linejoin:miter;stroke-opacity:1"
           d="m 31.616861,1005.5738 c -25.8686847,11.9394 -25.8686847,11.9394 -25.8686847,11.9394 l 0,3.9798 0,1.9899 25.8686847,-11.9394 25.868683,11.9394 0,-5.9697 z"
           id="path3908"
           inkscape:connector-curvature="0" />
        <path
           inkscape:connector-curvature="0"
           id="path3910"
           d="m 31.616861,1017.5132 c -25.8686851,11.9394 -25.8686851,11.9394 -25.8686851,11.9394 l 0,3.9798 0,1.9899 25.8686851,-11.9394 25.868683,11.9394 0,-5.9697 z"
           style="fill:#aa0000;stroke:none;stroke-width:0.49747469999999999px;stroke-linecap:butt;stroke-linejoin:miter;stroke-opacity:1" />
        <path
           style="fill:#aa0000;stroke:none;stroke-width:0.49747469999999999px;stroke-linecap:butt;stroke-linejoin:miter;stroke-opacity:1"
           d="m 31.616861,1017.5132 c -25.8686851,11.9394 -25.8686851,11.9394 -25.8686851,11.9394 l 0,3.9798 0,1.9899 25.8686851,-11.9394 25.868683,11.9394 0,-5.9697 z"
           id="path3912"
           inkscape:connector-curvature="0" />
        <path
           inkscape:connector-curvature="0"
           id="path3914"
           d="M 31.616861,1029.4526 C 5.7481755,1041.392 5.7481755,1041.392 5.7481755,1041.392 l 0,3.9798 0,1.9899 25.8686855,-11.9394 25.868683,11.9394 0,-5.9697 z"
           style="fill:#aa0000;stroke:none;stroke-width:0.49747469999999999px;stroke-linecap:butt;stroke-linejoin:miter;stroke-opacity:1" />
      </g>
    </g>
  </g>
</svg>
