# Blender v2.63 (sub 0) OBJ File: 'quit.blend'
# www.blender.org
o Plane
v 1.000000 0.000000 1.000000
v -1.000000 0.000000 1.000000
v 1.000000 0.000000 -1.000000
v -1.000000 0.000000 -1.000000
v 0.000000 0.000000 -3.000000
v -1.500000 0.000000 -1.000000
v 1.500000 0.000000 -1.000000
v 1.000000 1.000000 1.000000
v -1.000000 1.000000 1.000000
v 1.000000 1.000000 -1.000000
v -1.000000 1.000000 -1.000000
v 0.000000 1.000000 -3.000000
v -1.500000 1.000000 -1.000000
v 1.500000 1.000000 -1.000000
vn -0.000000 -1.000000 0.000000
vn 0.000000 0.000000 0.000000
vn -0.000000 1.000000 0.000000
vn 0.800000 0.000000 -0.600000
vn -1.000000 -0.000000 0.000000
vn -0.800000 0.000000 -0.600000
vn 0.000000 0.000000 1.000000
vn 1.000000 0.000000 0.000000
s off
f 6//1 5//1 7//1
f 4//2 6//2 7//2
f 3//1 2//1 4//1
f 3//2 4//2 7//2
f 3//1 1//1 2//1
f 14//3 12//3 13//3
f 14//2 13//2 11//2
f 10//3 11//3 9//3
f 10//2 14//2 11//2
f 10//3 9//3 8//3
f 7//4 5//4 12//4
f 7//4 12//4 14//4
f 4//5 2//5 9//5
f 4//5 9//5 11//5
f 13//6 12//6 5//6
f 13//6 5//6 6//6
f 6//7 4//7 11//7
f 6//7 11//7 13//7
f 14//7 10//7 3//7
f 14//7 3//7 7//7
f 2//7 1//7 8//7
f 2//7 8//7 9//7
f 1//8 3//8 10//8
f 1//8 10//8 8//8
